<svg width="49" height="48" viewBox="0 0 49 48" fill="none" xmlns="http://www.w3.org/2000/svg">
<g clip-path="url(#clip0_302_672)">
<path d="M2.90871 24C2.90871 34.8667 11.165 44.2563 21.7485 45.43C32.9998 46.6846 42.9964 39.6222 45.5057 28.6947C46.2949 25.2748 46.2342 21.8752 45.3033 18.4957C45.2426 18.2327 45.2021 17.9696 45.1212 17.7065C44.8986 16.9173 45.101 16.3102 45.9104 16.0876C46.7603 15.8448 47.2055 16.371 47.4281 17.0995C48.5411 20.8634 48.8649 24.7082 47.9947 28.5531C45.6676 38.7925 39.3741 45.2479 29.0942 47.4941C18.2274 49.8819 6.87499 43.8516 2.50399 33.6121C-2.23125 22.4823 1.63384 9.93588 11.8531 3.62222C17.9037 -0.101223 24.4197 -0.910666 31.2595 1.01176C32.0284 1.23436 32.676 1.61884 32.4332 2.52947C32.1903 3.48056 31.4618 3.58175 30.6119 3.31868C26.3016 2.06404 22.0318 2.10451 17.7418 3.52104C8.83789 6.45527 2.90871 14.6306 2.90871 24Z" fill="black"/>
<path d="M24.3993 40.6341C15.2121 40.5734 7.8259 33.1265 7.80566 23.9191C7.80566 14.7521 15.1311 7.30525 24.2576 7.18384C24.6421 7.18384 25.0266 7.18384 25.4111 7.22431C26.2407 7.28502 26.8478 7.70998 26.7871 8.58013C26.7264 9.43004 26.0586 9.65264 25.2896 9.61217C21.4043 9.40981 17.9439 10.5633 15.0704 13.194C10.8006 17.0995 9.26266 21.9562 10.7399 27.5413C12.1969 33.1265 15.9406 36.7083 21.5864 37.882C27.4144 39.1164 32.3116 37.194 36.0148 32.4992C38.1193 29.8078 39.0299 26.6914 38.8681 23.2715C38.8276 22.4418 38.8681 21.6729 39.9203 21.5717C41.0131 21.4705 41.2154 22.28 41.2761 23.1501C42.0047 32.4385 34.0519 40.6746 24.4397 40.6139L24.3993 40.6341Z" fill="black"/>
<path d="M41.2761 5.42326C41.2963 7.4671 40.9928 7.16356 43.3604 7.1838C43.8866 7.1838 44.4329 7.14332 44.9591 7.20403C45.9911 7.34569 46.4363 8.39796 45.728 9.1467C43.3604 11.5953 40.9523 14.0034 38.5038 16.3507C38.18 16.6543 37.4919 16.7757 37.0265 16.6948C34.3351 16.2496 32.4127 17.3423 30.7129 19.3659C29.1952 21.1669 27.3941 22.7251 25.7145 24.4047C25.1075 25.0118 24.4397 25.3963 23.7314 24.688C23.0231 23.9797 23.4076 23.312 24.0147 22.7049C26.3419 20.3777 28.6893 18.0708 30.9557 15.7032C31.3604 15.2985 31.7247 14.57 31.664 14.0438C31.2997 11.2917 32.2306 9.22764 34.3958 7.50757C35.9945 6.21246 37.3503 4.61381 38.8073 3.15682C39.293 2.67115 39.8596 1.98312 40.5476 2.50926C40.9928 2.85327 41.094 3.64248 41.2761 4.24956C41.357 4.4924 41.2761 4.7757 41.2761 5.36255V5.42326ZM38.7466 6.7386C37.2086 8.25631 35.6302 9.55142 34.4161 11.1298C33.9304 11.7774 34.2137 13.0118 34.1935 14.0034C34.1935 14.1045 34.3958 14.2867 34.497 14.2867C35.4481 14.2664 36.6623 14.57 37.2694 14.1045C38.868 12.8499 40.1833 11.2513 41.6403 9.75378C39.9675 9.36255 39.0029 8.35749 38.7466 6.7386Z" fill="black"/>
<path d="M24.5609 33.5515C19.3602 33.4705 15.1511 29.3424 15.0095 24.1417C14.8678 19.0017 18.8948 14.6307 23.9943 14.4081C24.48 14.3879 25.0668 14.5498 25.4513 14.8331C25.6739 15.0152 25.8156 15.7437 25.6334 15.9461C25.2894 16.3306 24.743 16.6746 24.2574 16.7353C21.91 16.9781 20.0078 17.9292 18.6722 19.8921C16.8914 22.5026 16.9926 25.6594 18.8746 28.2496C20.5542 30.5565 23.6705 31.5886 26.5441 30.7791C29.3771 30.0102 31.4412 27.4402 31.7245 24.425C31.7852 23.8989 32.0078 23.3322 32.3518 22.9275C32.5339 22.7252 33.2827 22.7049 33.485 22.9073C33.829 23.2311 34.0921 23.7977 34.0921 24.2631C34.0921 28.2294 31.1579 32.0135 27.2726 33.0658C26.4024 33.3086 25.4715 33.3896 24.5812 33.5515H24.5609Z" fill="black"/>
</g>
<defs>
<clipPath id="clip0_302_672">
<rect width="48" height="48" fill="white" transform="translate(0.5)"/>
</clipPath>
</defs>
</svg>
