<svg width="48" height="49" viewBox="0 0 48 49" fill="none" xmlns="http://www.w3.org/2000/svg">
<path d="M24.9095 29.7072L24 29.0137L23.0905 29.7072L18.7817 32.9926L20.4355 27.535L20.7481 26.5037L19.8704 25.8784L15.6902 22.9H20.8H21.9079L22.2337 21.8411L24 16.1006L25.7663 21.8411L26.0921 22.9H27.2H32.3098L28.1296 25.8784L27.2519 26.5037L27.5645 27.535L29.2183 32.9926L24.9095 29.7072ZM15.6057 44.8022C18.2349 45.9368 21.0381 46.5 24 46.5C26.9619 46.5 29.7651 45.9368 32.3943 44.8022C34.9944 43.6803 37.2711 42.1502 39.2107 40.2107C41.1502 38.2711 42.6803 35.9944 43.8022 33.3943C44.9368 30.7651 45.5 27.9619 45.5 25C45.5 22.0381 44.9368 19.2349 43.8022 16.6057C42.6803 14.0056 41.1502 11.7289 39.2107 9.78934C37.2711 7.8498 34.9944 6.31972 32.3943 5.19775C29.7651 4.06322 26.9619 3.5 24 3.5C21.0381 3.5 18.2349 4.06322 15.6057 5.19775C13.0056 6.31972 10.7289 7.8498 8.78934 9.78934C6.8498 11.7289 5.31972 14.0056 4.19775 16.6057C3.06322 19.2349 2.5 22.0381 2.5 25C2.5 27.9619 3.06322 30.7651 4.19775 33.3943C5.31972 35.9944 6.8498 38.2711 8.78934 40.2107C10.7289 42.1502 13.0056 43.6803 15.6057 44.8022Z" fill="white" stroke="black" stroke-width="3"/>
</svg>
